<?xml version="1.0" standalone="no"?>
<!DOCTYPE svg PUBLIC "-//W3C//DTD SVG 20010904//EN"
 "http://www.w3.org/TR/2001/REC-SVG-20010904/DTD/svg10.dtd">
<svg version="1.0" xmlns="http://www.w3.org/2000/svg"
 width="198.000000pt" height="198.000000pt" viewBox="0 0 198.000000 198.000000"
 preserveAspectRatio="xMidYMid meet">
<metadata>
Created by potrace 1.14, written by Peter Selinger 2001-2017
</metadata>
<g transform="translate(0.000000,198.000000) scale(0.100000,-0.100000)"
fill="#000000" stroke="none">
<path d="M90 990 l0 -900 900 0 900 0 0 900 0 900 -900 0 -900 0 0 -900z
m1620 0 l0 -720 -720 0 -720 0 0 720 0 720 720 0 720 0 0 -720z"/>
<path d="M630 1080 l0 -180 -90 0 -90 0 0 -90 0 -90 180 0 180 0 0 270 0 270
-90 0 -90 0 0 -180z"/>
<path d="M1170 990 l0 -270 180 0 180 0 0 90 0 90 -90 0 -90 0 0 180 0 180
-90 0 -90 0 0 -270z"/>
</g>
</svg>
