<?xml version="1.0" standalone="no"?>
<!DOCTYPE svg PUBLIC "-//W3C//DTD SVG 20010904//EN"
 "http://www.w3.org/TR/2001/REC-SVG-20010904/DTD/svg10.dtd">
<svg version="1.0" xmlns="http://www.w3.org/2000/svg"
 width="500.000000pt" height="500.000000pt" viewBox="0 0 500.000000 500.000000"
 preserveAspectRatio="xMidYMid meet">
<metadata>
Created by potrace 1.14, written by Peter Selinger 2001-2017
</metadata>
<g transform="translate(0.000000,500.000000) scale(0.100000,-0.100000)"
fill="#000000" stroke="none">
<path d="M819 4477 c-69 -37 -101 -90 -107 -180 l-4 -75 -132 -4 c-115 -3
-138 -7 -188 -30 -75 -35 -141 -98 -175 -167 l-28 -56 0 -1635 0 -1635 25 -50
c34 -71 117 -148 187 -177 l58 -23 2000 -3 c1259 -2 2023 1 2063 7 120 19 206
79 263 183 l34 63 0 1635 0 1635 -29 58 c-36 71 -99 130 -174 165 -50 23 -73
27 -188 30 l-132 4 -4 67 c-4 82 -31 136 -86 175 -74 52 -77 52 -832 -100
l-685 -138 -185 0 -185 0 -681 137 c-375 75 -702 137 -726 137 -28 0 -62 -9
-89 -23z m781 -307 c360 -71 687 -132 725 -135 39 -3 85 -8 103 -11 l32 -5 0
-1671 0 -1671 -77 7 c-43 4 -379 67 -747 140 l-670 133 -28 32 -28 31 0 1640
c0 1559 1 1640 18 1640 9 0 312 -58 672 -130z m2490 -1510 l0 -1640 -28 -31
-28 -32 -670 -133 c-368 -73 -704 -136 -746 -140 l-78 -7 0 1671 0 1671 33 5
c17 3 64 8 102 11 39 3 360 64 715 134 355 71 657 129 673 130 l27 1 0 -1640z
m-3380 -143 c0 -1641 -3 -1550 58 -1639 61 -89 94 -102 433 -168 167 -33 308
-62 314 -64 5 -3 -224 -4 -510 -3 -578 2 -563 0 -605 70 -20 31 -20 63 -20
1617 0 1564 0 1585 20 1618 36 59 71 72 198 72 l112 0 0 -1503z m3838 1483
c18 -11 41 -34 52 -52 20 -33 20 -54 20 -1618 0 -1554 0 -1586 -20 -1617 -42
-70 -26 -68 -610 -70 l-525 -1 310 62 c188 38 326 71 350 83 50 27 106 85 136
143 l24 45 3 1523 2 1522 113 0 c94 0 117 -3 145 -20z"/>
<path d="M1650 2725 l0 -425 -215 0 -215 0 0 -210 0 -210 420 0 420 0 0 635 0
635 -205 0 -205 0 0 -425z"/>
<path d="M2940 2515 l0 -635 420 0 420 0 0 210 0 210 -215 0 -215 0 0 425 0
425 -205 0 -205 0 0 -635z"/>
</g>
</svg>
