<svg xmlns="http://www.w3.org/2000/svg" xmlns:xlink="http://www.w3.org/1999/xlink" width="500" zoomAndPan="magnify" viewBox="0 0 375 374.999991" height="500" preserveAspectRatio="xMidYMid meet" version="1.0"><defs><clipPath id="2a1a1d40a5"><path d="M 17.050781 17.375 L 357.546875 17.375 L 357.546875 357.617188 L 17.050781 357.617188 Z M 17.050781 17.375 " clip-rule="nonzero"/></clipPath><clipPath id="f0a3351adf"><path d="M 119.46875 136.976562 L 153.109375 136.976562 L 153.109375 238.023438 L 119.46875 238.023438 Z M 119.46875 136.976562 " clip-rule="nonzero"/></clipPath><clipPath id="650d38c119"><path d="M 222.109375 136.976562 L 255.75 136.976562 L 255.75 238.023438 L 222.109375 238.023438 Z M 222.109375 136.976562 " clip-rule="nonzero"/></clipPath><clipPath id="c982d86516"><path d="M 85.351562 204.546875 L 153.109375 204.546875 L 153.109375 238.023438 L 85.351562 238.023438 Z M 85.351562 204.546875 " clip-rule="nonzero"/></clipPath><clipPath id="412ed4144b"><path d="M 222.109375 204.546875 L 289.867188 204.546875 L 289.867188 238.023438 L 222.109375 238.023438 Z M 222.109375 204.546875 " clip-rule="nonzero"/></clipPath></defs><rect x="-37.5" width="450" fill="#ffffff" y="-37.499999" height="449.999989" fill-opacity="1"/><rect x="-37.5" width="450" fill="#ffffff" y="-37.499999" height="449.999989" fill-opacity="1"/><g clip-path="url(#2a1a1d40a5)"><path stroke-linecap="butt" transform="matrix(0.75, 0, 0, 0.75, 17.048899, 17.375653)" fill="none" stroke-linejoin="miter" d="M 0.00251001 -0.000871012 L 454.091081 -0.000871012 L 454.091081 453.655409 L 0.00251001 453.655409 Z M 0.00251001 -0.000871012 " stroke="#000000" stroke-width="92" stroke-opacity="1" stroke-miterlimit="4"/></g><g clip-path="url(#f0a3351adf)"><path fill="#222222" d="M 119.46875 136.976562 L 153.109375 136.976562 L 153.109375 238.023438 L 119.46875 238.023438 Z M 119.46875 136.976562 " fill-opacity="1" fill-rule="nonzero"/></g><g clip-path="url(#650d38c119)"><path fill="#222222" d="M 222.109375 136.976562 L 255.75 136.976562 L 255.75 238.023438 L 222.109375 238.023438 Z M 222.109375 136.976562 " fill-opacity="1" fill-rule="nonzero"/></g><g clip-path="url(#c982d86516)"><path fill="#222222" d="M 85.351562 204.546875 L 153.109375 204.546875 L 153.109375 238.023438 L 85.351562 238.023438 Z M 85.351562 204.546875 " fill-opacity="1" fill-rule="nonzero"/></g><g clip-path="url(#412ed4144b)"><path fill="#222222" d="M 222.109375 204.546875 L 289.867188 204.546875 L 289.867188 238.023438 L 222.109375 238.023438 Z M 222.109375 204.546875 " fill-opacity="1" fill-rule="nonzero"/></g></svg>